<?xml version="1.0" encoding="UTF-8"?>
<svg id="_图层_2" data-name="图层 2" xmlns="http://www.w3.org/2000/svg" viewBox="0 0 120.34 40.8">
  <defs>
    <style>
      .cls-1 {
        opacity: .68;
      }

      .cls-2 {
        fill: #fff;
      }

      .cls-3 {
        fill: none;
        stroke: #fff;
        stroke-miterlimit: 10;
        stroke-width: .5px;
      }
    </style>
  </defs>
  <g id="_图层_1-2" data-name="图层 1">
    <g>
      <g>
        <rect class="cls-2" x="73.15" y="0" width="9.2" height="40.8"/>
        <polygon class="cls-2" points="59.25 40.8 50.05 40.8 63.95 0 73.15 0 59.25 40.8"/>
        <rect class="cls-2" x="85.84" y="0" width="9.2" height="40.8"/>
        <rect class="cls-2" x="98.53" y="0" width="9.2" height="40.8"/>
        <rect class="cls-2" x="110.34" y="30.8" width="10" height="10" rx="5" ry="5"/>
        <polygon class="cls-2" points="49.84 40.8 59.04 40.8 45.14 0 35.94 0 49.84 40.8"/>
      </g>
      <g class="cls-1">
        <circle class="cls-3" cx="2.91" cy="2.92" r="2.66"/>
        <path class="cls-3" d="M3.91,3.9c-.25,.25-.6,.41-.98,.41-.76,0-1.39-.62-1.39-1.39s.62-1.39,1.39-1.39c.43,0,.81,.2,1.07,.5"/>
      </g>
      <polygon class="cls-2" points="31.25 40.8 22.05 40.8 35.95 0 45.15 0 31.25 40.8"/>
      <polygon class="cls-2" points="21.83 40.8 31.03 40.8 17.13 0 7.93 0 21.83 40.8"/>
    </g>
  </g>
</svg>