<svg xmlns="http://www.w3.org/2000/svg" viewBox="0 0 247 60"><defs><style>.cls-1{fill:#8cacf5;}</style></defs><title>资源 1</title><g id="图层_2" data-name="图层 2"><g id="图层_1-2" data-name="图层 1"><rect class="cls-1" x="139" width="28" height="60" rx="14"/><rect class="cls-1" x="179" width="28" height="60" rx="14"/><rect class="cls-1" x="219" width="28" height="60" rx="14"/><path class="cls-1" d="M123,5a14,14,0,0,0-19.8,0L88.62,19.58l6.29-11A14,14,0,0,0,68,14V46a12.75,12.75,0,0,0,.07,1.38c0,.21.06.41.09.62s.06.49.11.74.11.46.17.69.1.42.16.63.16.45.24.67.14.42.23.63.18.4.28.61.19.42.3.63l.34.57c.12.2.24.41.37.6s.29.41.44.61.24.33.37.49a14,14,0,0,0,2,2l.49.37c.2.15.4.3.61.44s.4.25.6.37l.57.34c.21.11.42.2.63.3s.41.2.61.28.42.16.63.23.44.17.67.24l.63.16.69.17c.25.05.49.08.74.11s.41.07.62.09a14.14,14.14,0,0,0,2.76,0c.21,0,.41-.06.62-.09s.49-.06.74-.11l.69-.17.63-.16c.23-.07.45-.16.67-.24s.42-.14.63-.23.4-.18.61-.28.42-.19.63-.3l.57-.34c.2-.12.41-.24.6-.37s.41-.29.61-.44l.49-.37c.36-.3.7-.6,1-.93L123,24.8A14,14,0,0,0,123,5Z"/><path class="cls-1" d="M55,5A14,14,0,0,0,35.2,5L20.62,19.58l6.29-11A14,14,0,0,0,0,14V46a12.75,12.75,0,0,0,.07,1.38c0,.21.06.41.09.62s.06.49.11.74.11.46.17.69.1.42.16.63.16.45.24.67.14.42.23.63.18.4.28.61.19.42.3.63l.34.57c.12.2.24.41.37.6s.29.41.44.61.24.33.37.49a14,14,0,0,0,2,2l.49.37c.2.15.4.3.61.44s.4.25.6.37l.57.34.63.3c.21.1.41.2.61.28s.42.16.63.23.44.17.67.24l.63.16.69.17c.25.05.49.08.74.11s.41.07.62.09a14.14,14.14,0,0,0,2.76,0c.21,0,.41-.06.62-.09s.49-.06.74-.11l.69-.17.63-.16c.23-.07.45-.16.67-.24s.42-.14.63-.23.4-.18.61-.28l.63-.3.57-.34c.2-.12.41-.24.6-.37s.41-.29.61-.44l.49-.37c.36-.3.7-.6,1-.93L55,24.8A14,14,0,0,0,55,5Z"/></g></g></svg>